# Blender 3.6.23
# www.blender.org
mtllib chicken.mtl
o 立方体.001
v 0.116065 1.108695 0.317105
v 0.116065 1.176225 0.317105
v 0.117919 1.108695 0.539829
v 0.117919 1.176225 0.539829
v -0.114990 1.108695 0.319029
v -0.114990 1.176225 0.319029
v -0.113135 1.108695 0.541752
v -0.113135 1.176225 0.541752
v -0.416783 1.736722 0.373973
v -0.416783 0.259531 0.373973
v -0.423740 1.736722 -0.461541
v -0.423740 0.259531 -0.461541
v 0.418731 1.736722 0.367016
v 0.418731 0.259531 0.367017
v 0.411775 1.736722 -0.468498
v 0.411774 0.259531 -0.468498
v -0.416783 0.898168 0.373973
v 0.411774 0.898168 -0.468498
v -0.423740 0.898168 -0.461541
v 0.418731 0.898168 0.367016
v -0.429923 0.898167 -1.204170
v -0.429923 0.259531 -1.204170
v 0.405591 0.259531 -1.211127
v 0.405591 0.898167 -1.211127
v 0.116410 1.222169 0.358555
v 0.116410 1.331279 0.358555
v 0.118264 1.222169 0.581278
v 0.118264 1.331279 0.581278
v -0.114644 1.222169 0.360479
v -0.114644 1.331279 0.360479
v -0.112790 1.222169 0.583202
v -0.112790 1.331279 0.583202
v 0.038181 1.725161 -0.215675
v 0.038181 1.889879 -0.215675
v 0.040980 1.725161 0.120449
v 0.040980 1.889879 0.120449
v -0.045988 1.725161 -0.214974
v -0.045988 1.889879 -0.214974
v -0.043190 1.725161 0.121149
v -0.043190 1.889879 0.121149
v 0.206847 1.515593 0.439263
v 0.206847 1.371893 0.439263
v 0.205651 1.515593 0.295567
v 0.205651 1.371893 0.295567
v 0.350543 1.515593 0.438066
v 0.350543 1.371893 0.438066
v 0.349346 1.515593 0.294371
v 0.349346 1.371893 0.294371
v -0.327318 1.515593 0.443711
v -0.327318 1.371893 0.443711
v -0.328515 1.515593 0.300015
v -0.328515 1.371893 0.300015
v -0.183622 1.515593 0.442514
v -0.183622 1.371893 0.442514
v -0.184819 1.515593 0.298819
v -0.184819 1.371893 0.298819
v 0.555409 0.695648 -0.830977
v 0.555409 0.859018 -0.830977
v 0.562484 0.695648 0.018766
v 0.562484 0.859018 0.018766
v 0.392045 0.695648 -0.829617
v 0.392045 0.859018 -0.829617
v 0.399120 0.695648 0.020126
v 0.399120 0.859018 0.020126
v 0.555409 0.695648 -0.830977
v 0.555409 0.859018 -0.830977
v 0.562484 0.695648 0.018766
v 0.562484 0.859018 0.018766
v 0.392045 0.695648 -0.829617
v 0.392045 0.859018 -0.829617
v 0.399120 0.695648 0.020126
v 0.399120 0.859018 0.020126
v 0.555409 0.695648 -0.830977
v 0.555409 0.859018 -0.830977
v 0.562484 0.695648 0.018766
v 0.562484 0.859018 0.018766
v 0.392045 0.695648 -0.829617
v 0.392045 0.859018 -0.829617
v 0.399120 0.695648 0.020126
v 0.399120 0.859018 0.020126
v -0.416510 0.695648 -0.822885
v -0.416510 0.859018 -0.822885
v -0.409434 0.695648 0.026858
v -0.409434 0.859018 0.026858
v -0.579874 0.695648 -0.821525
v -0.579874 0.859018 -0.821525
v -0.572799 0.695648 0.028219
v -0.572799 0.859018 0.028219
v 0.398921 -0.090287 -0.335438
v 0.398921 0.009399 -0.335438
v 0.401862 -0.090287 0.017777
v 0.401862 0.009399 0.017777
v 0.166694 -0.090287 -0.333504
v 0.166694 0.009399 -0.333504
v 0.169635 -0.090287 0.019710
v 0.169635 0.009399 0.019710
v 0.343102 -0.009235 -0.267081
v 0.343102 0.284482 -0.267081
v 0.344056 -0.009235 -0.152485
v 0.344056 0.284482 -0.152485
v 0.228505 -0.009235 -0.266127
v 0.228506 0.284482 -0.266127
v 0.229460 -0.009235 -0.151532
v 0.229460 0.284482 -0.151532
v -0.167833 -0.090287 -0.330718
v -0.167833 0.009399 -0.330718
v -0.164893 -0.090287 0.022495
v -0.164893 0.009399 0.022495
v -0.400061 -0.090287 -0.328785
v -0.400061 0.009399 -0.328785
v -0.397120 -0.090287 0.024429
v -0.397120 0.009399 0.024429
v -0.223653 -0.009235 -0.262363
v -0.223653 0.284482 -0.262363
v -0.222699 -0.009235 -0.147767
v -0.222699 0.284482 -0.147767
v -0.338250 -0.009235 -0.261408
v -0.338250 0.284482 -0.261409
v -0.337295 -0.009235 -0.146812
v -0.337295 0.284482 -0.146812
vn 1.0000 -0.0000 -0.0083
vn 0.0083 -0.0000 1.0000
vn -1.0000 -0.0000 0.0083
vn -0.0083 -0.0000 -1.0000
vn -0.0000 -1.0000 -0.0000
vn -0.0000 1.0000 -0.0000
vt 0.791675 0.865676
vt 0.791675 0.921707
vt 0.735645 0.921707
vt 0.735645 0.865676
vt 0.679614 0.921707
vt 0.679614 0.865676
vt 0.623584 0.921707
vt 0.623584 0.865676
vt 0.567553 0.921707
vt 0.567553 0.865676
vt 0.679614 0.809646
vt 0.623584 0.809646
vt 0.679614 0.977737
vt 0.623584 0.977737
vt 0.001824 0.003648
vt 0.862891 0.109598
vt 0.929435 0.109598
vt 0.929435 0.176141
vt 0.862891 0.176141
vt 0.929435 0.242685
vt 0.862891 0.242685
vt 0.929435 0.309229
vt 0.862891 0.309229
vt 0.929435 0.375772
vt 0.862891 0.375772
vt 0.796348 0.242685
vt 0.796348 0.309229
vt 0.995978 0.242685
vt 0.995978 0.309229
vt 0.787571 0.336554
vt 0.860765 0.336554
vt 0.860765 0.409747
vt 0.787571 0.409747
vt 0.860765 0.482941
vt 0.787571 0.482941
vt 0.860765 0.556134
vt 0.787571 0.556134
vt 0.860765 0.629327
vt 0.787571 0.629327
vt 0.714378 0.482941
vt 0.714378 0.556134
vt 0.933958 0.482941
vt 0.933958 0.556134
vt 0.355321 0.229841
vt 0.298387 0.229841
vt 0.298387 0.172907
vt 0.355321 0.172907
vt 0.298387 0.115974
vt 0.355321 0.115974
vt 0.298387 0.059040
vt 0.355321 0.059040
vt 0.298387 0.002106
vt 0.355321 0.002106
vt 0.412255 0.115974
vt 0.412255 0.059040
vt 0.241454 0.115974
vt 0.241454 0.059040
vt 0.863869 0.677036
vt 0.920803 0.677036
vt 0.920803 0.733970
vt 0.863869 0.733970
vt 0.920803 0.790904
vt 0.863869 0.790904
vt 0.920803 0.847838
vt 0.863869 0.847838
vt 0.920803 0.904772
vt 0.863869 0.904772
vt 0.806936 0.790904
vt 0.806936 0.847838
vt 0.977737 0.790904
vt 0.977737 0.847838
vt 0.120427 0.000981
vt 0.239891 0.000981
vt 0.239891 0.120445
vt 0.120427 0.120445
vt 0.239891 0.239908
vt 0.120427 0.239908
vt 0.239891 0.359372
vt 0.120427 0.359372
vt 0.239891 0.478836
vt 0.120427 0.478836
vt 0.000964 0.239908
vt 0.000964 0.359372
vt 0.359355 0.239908
vt 0.359355 0.359372
vt 0.361213 0.122286
vt 0.480677 0.122286
vt 0.480677 0.241750
vt 0.361213 0.241750
vt 0.480677 0.361213
vt 0.361213 0.361213
vt 0.480677 0.480677
vt 0.361213 0.480677
vt 0.480677 0.600141
vt 0.361213 0.600141
vt 0.241750 0.361213
vt 0.241750 0.480677
vt 0.600141 0.361213
vt 0.600141 0.480677
vt 0.721463 0.479748
vt 0.601999 0.479748
vt 0.601999 0.360284
vt 0.721463 0.360284
vt 0.601999 0.240820
vt 0.721463 0.240820
vt 0.601999 0.121357
vt 0.721463 0.121357
vt 0.601999 0.001893
vt 0.721463 0.001893
vt 0.840927 0.240820
vt 0.840927 0.121357
vt 0.482536 0.240820
vt 0.482536 0.121357
vt 0.479748 0.601999
vt 0.479748 0.721463
vt 0.360284 0.721463
vt 0.360284 0.601999
vt 0.240820 0.721463
vt 0.240820 0.601999
vt 0.121357 0.721463
vt 0.121357 0.601999
vt 0.001893 0.721463
vt 0.001893 0.601999
vt 0.240820 0.482536
vt 0.121357 0.482536
vt 0.240820 0.840927
vt 0.121357 0.840927
vt 0.557160 0.483170
vt 0.632463 0.483170
vt 0.632463 0.558472
vt 0.557160 0.558472
vt 0.632463 0.633774
vt 0.557160 0.633774
vt 0.632463 0.709076
vt 0.557160 0.709076
vt 0.632463 0.784379
vt 0.557160 0.784379
vt 0.481858 0.633774
vt 0.481858 0.709076
vt 0.707765 0.633774
vt 0.707765 0.709076
vt 0.342995 0.856902
vt 0.342995 0.787143
vt 0.412754 0.787143
vt 0.412754 0.856902
vt 0.482513 0.787143
vt 0.482513 0.856902
vt 0.552272 0.787143
vt 0.552272 0.856902
vt 0.622030 0.787143
vt 0.622030 0.856902
vt 0.482513 0.926661
vt 0.552272 0.926661
vt 0.482513 0.717384
vt 0.552272 0.717384
vt 0.710388 0.561607
vt 0.785690 0.561607
vt 0.785690 0.636910
vt 0.710388 0.636910
vt 0.785690 0.712212
vt 0.710388 0.712212
vt 0.785690 0.787514
vt 0.710388 0.787514
vt 0.785690 0.862816
vt 0.710388 0.862816
vt 0.635086 0.712212
vt 0.635086 0.787514
vt 0.860992 0.712212
vt 0.860992 0.787514
vt 0.104033 0.929868
vt 0.104033 0.860109
vt 0.173792 0.860109
vt 0.173792 0.929868
vt 0.243551 0.860109
vt 0.243551 0.929868
vt 0.313310 0.860109
vt 0.313310 0.929868
vt 0.383069 0.860109
vt 0.383069 0.929868
vt 0.243551 0.999627
vt 0.313310 0.999627
vt 0.243551 0.790350
vt 0.313310 0.790350
s 0
usemtl Material.001
f 1/1/1 2/2/1 4/3/1 3/4/1
f 3/4/2 4/3/2 8/5/2 7/6/2
f 7/6/3 8/5/3 6/7/3 5/8/3
f 5/8/4 6/7/4 2/9/4 1/10/4
f 3/11/5 7/6/5 5/8/5 1/12/5
f 8/5/6 4/13/6 2/14/6 6/7/6
f 9/15/6 13/15/6 15/15/6 11/15/6
f 19/15/4 11/15/4 15/15/4 18/15/4
f 18/15/1 15/15/1 13/15/1 20/15/1
f 14/15/5 10/15/5 12/15/5 16/15/5
f 17/15/3 9/15/3 11/15/3 19/15/3
f 20/15/2 13/15/2 9/15/2 17/15/2
f 14/15/2 20/15/2 17/15/2 10/15/2
f 10/15/3 17/15/3 19/15/3 12/15/3
f 16/15/1 18/15/1 20/15/1 14/15/1
f 16/15/5 12/15/5 22/15/5 23/15/5
f 22/15/4 21/15/4 24/15/4 23/15/4
f 19/15/6 18/15/6 24/15/6 21/15/6
f 12/15/3 19/15/3 21/15/3 22/15/3
f 18/15/1 16/15/1 23/15/1 24/15/1
f 25/16/1 26/17/1 28/18/1 27/19/1
f 27/19/2 28/18/2 32/20/2 31/21/2
f 31/21/3 32/20/3 30/22/3 29/23/3
f 29/23/4 30/22/4 26/24/4 25/25/4
f 27/26/5 31/21/5 29/23/5 25/27/5
f 32/20/6 28/28/6 26/29/6 30/22/6
f 33/30/1 34/31/1 36/32/1 35/33/1
f 35/33/2 36/32/2 40/34/2 39/35/2
f 39/35/3 40/34/3 38/36/3 37/37/3
f 37/37/4 38/36/4 34/38/4 33/39/4
f 35/40/5 39/35/5 37/37/5 33/41/5
f 40/34/6 36/42/6 34/43/6 38/36/6
f 41/44/1 42/45/1 44/46/1 43/47/1
f 43/47/2 44/46/2 48/48/2 47/49/2
f 47/49/3 48/48/3 46/50/3 45/51/3
f 45/51/4 46/50/4 42/52/4 41/53/4
f 43/54/5 47/49/5 45/51/5 41/55/5
f 48/48/6 44/56/6 42/57/6 46/50/6
f 49/58/1 50/59/1 52/60/1 51/61/1
f 51/61/2 52/60/2 56/62/2 55/63/2
f 55/63/3 56/62/3 54/64/3 53/65/3
f 53/65/4 54/64/4 50/66/4 49/67/4
f 51/68/5 55/63/5 53/65/5 49/69/5
f 56/62/6 52/70/6 50/71/6 54/64/6
f 57/72/1 58/73/1 60/74/1 59/75/1
f 59/75/2 60/74/2 64/76/2 63/77/2
f 63/77/3 64/76/3 62/78/3 61/79/3
f 61/79/4 62/78/4 58/80/4 57/81/4
f 59/82/5 63/77/5 61/79/5 57/83/5
f 64/76/6 60/84/6 58/85/6 62/78/6
f 65/86/1 66/87/1 68/88/1 67/89/1
f 67/89/2 68/88/2 72/90/2 71/91/2
f 71/91/3 72/90/3 70/92/3 69/93/3
f 69/93/4 70/92/4 66/94/4 65/95/4
f 67/96/5 71/91/5 69/93/5 65/97/5
f 72/90/6 68/98/6 66/99/6 70/92/6
f 73/100/1 74/101/1 76/102/1 75/103/1
f 75/103/2 76/102/2 80/104/2 79/105/2
f 79/105/3 80/104/3 78/106/3 77/107/3
f 77/107/4 78/106/4 74/108/4 73/109/4
f 75/110/5 79/105/5 77/107/5 73/111/5
f 80/104/6 76/112/6 74/113/6 78/106/6
f 81/114/1 82/115/1 84/116/1 83/117/1
f 83/117/2 84/116/2 88/118/2 87/119/2
f 87/119/3 88/118/3 86/120/3 85/121/3
f 85/121/4 86/120/4 82/122/4 81/123/4
f 83/124/5 87/119/5 85/121/5 81/125/5
f 88/118/6 84/126/6 82/127/6 86/120/6
f 89/128/1 90/129/1 92/130/1 91/131/1
f 91/131/2 92/130/2 96/132/2 95/133/2
f 95/133/3 96/132/3 94/134/3 93/135/3
f 93/135/4 94/134/4 90/136/4 89/137/4
f 91/138/5 95/133/5 93/135/5 89/139/5
f 96/132/6 92/140/6 90/141/6 94/134/6
f 97/142/1 98/143/1 100/144/1 99/145/1
f 99/145/2 100/144/2 104/146/2 103/147/2
f 103/147/3 104/146/3 102/148/3 101/149/3
f 101/149/4 102/148/4 98/150/4 97/151/4
f 99/152/5 103/147/5 101/149/5 97/153/5
f 104/146/6 100/154/6 98/155/6 102/148/6
f 105/156/1 106/157/1 108/158/1 107/159/1
f 107/159/2 108/158/2 112/160/2 111/161/2
f 111/161/3 112/160/3 110/162/3 109/163/3
f 109/163/4 110/162/4 106/164/4 105/165/4
f 107/166/5 111/161/5 109/163/5 105/167/5
f 112/160/6 108/168/6 106/169/6 110/162/6
f 113/170/1 114/171/1 116/172/1 115/173/1
f 115/173/2 116/172/2 120/174/2 119/175/2
f 119/175/3 120/174/3 118/176/3 117/177/3
f 117/177/4 118/176/4 114/178/4 113/179/4
f 115/180/5 119/175/5 117/177/5 113/181/5
f 120/174/6 116/182/6 114/183/6 118/176/6
